{"title":"Silent Witness Season 17 720p HD WebRip","uid":9554289,"size":9511359116,"categoryP":"video","categoryS":"hd___tv_shows","magnet":"?xt=urn:btih:14733b4610561c35e50dc00009a1a8022ea46f15&amp;dn=Silent+Witness+Season+17+720p+HD+WebRip&amp;tr=udp%3A%2F%2Ftracker.openbittorrent.com%3A80&amp;tr=udp%3A%2F%2Fopen.demonii.com%3A1337&amp;tr=udp%3A%2F%2Ftracker.coppersurfer.tk%3A6969&amp;tr=udp%3A%2F%2Fexodus.desync.com%3A6969","seeders":6,"leechers":0,"uploader":"WayGood","files":-1,"time":1391328125,"description":"Silent Witness Season 17 Complete 720p High Definition\n\nAudio: 2.0ch 160kbps\nVideo: 1280x720 25FPS H.264\nSubtitles: English, softcoded\n\nSubtitles are not enabled by default. They are contained within the video files, but must be enabled to view. (VLC: Subtitle menu --&gt; Sub Track --&gt; Track 1 [English])\n\n\nSelect Files to see contents and episode list.\n\n\n\nPlease note this may take a couple days to upload, as I have a 100kb/s upload speed. In the early days of the torrent not everyone will be able to connect to seeds... but please be patient.\n\n\n\nPlease be sure to seed at full speed during and after download so that others can also enjoy.\n\n\n\nSilent Witness follows the work of forensic pathologist Dr. Sam Ryan, played by Amanda Burton. The series was created by an ex-police officer, Nigel McCrery. In 2004, Amanda Burton left the series and Nikki Alexander joined the team, played by Emilia Fox. \n\n\n\nCast: Emilia Fox, William Gaminara, Tom Ward\n\n\n\nThe technical stuff:\n\n\n\nVideo\n\nFormat                                   : AVC\nFormat/Info                              : Advanced Video Codec\nFormat profile                           : &lt;a class=&quot;__cf_email__&quot; href=&quot;/cdn-cgi/l/email-protection&quot; data-cfemail=&quot;612c00080f212d554f51&quot;&gt;[email&amp;#160;protected]&lt;/a&gt;&lt;script cf-hash='f9e31' type=&quot;text/javascript&quot;&gt;\n/* &lt;![CDATA[ */!function(){try{var t=&quot;currentScript&quot;in document?document.currentScript:function(){for(var t=document.getElementsByTagName(&quot;script&quot;),e=t.length;e--;)if(t[e].getAttribute(&quot;cf-hash&quot;))return t[e]}();if(t&amp;&amp;t.previousSibling){var e,r,n,i,c=t.previousSibling,a=c.getAttribute(&quot;data-cfemail&quot;);if(a){for(e=&quot;&quot;,r=parseInt(a.substr(0,2),16),n=2;a.length-n;n+=2)i=parseInt(a.substr(n,2),16)^r,e+=String.fromCharCode(i);e=document.createTextNode(e),c.parentNode.replaceChild(e,c)}}}catch(u){}}();/* ]]&gt; */&lt;/script&gt;\nFormat settings, CABAC                   : Yes\nFormat settings, ReFrames                : 9 frames\nWidth                                    : 1 280 pixels\nHeight                                   : 720 pixels\nDisplay aspect ratio                     : 16:9\nFrame rate                               : 25.000 fps\nMaximum frame rate                       : 25.000 fps\nWriting library                          : x264 core 130 r2273 b3065e6\n\nAudio\nFormat                                   : AAC\nFormat/Info                              : Advanced Audio Codec\nDuration                                 : 58mn 15s\nBit rate mode                            : Variable\nBit rate                                 : 160 Kbps\nMaximum bit rate                         : 284 Kbps\nChannel(s)                               : 2 channels\nChannel positions                        : Front: L R\nSampling rate                            : 48.0 KHz\nCompression mode                         : Lossy\nStream size                              : 66.6 MiB (7%)\n\nSubtitle (softcoded)\n\nFormat                                   : Timed Text\nCodec ID                                 : tx3g\nDuration                                 : 57mn 40s\nBit rate mode                            : Variable\nBit rate                                 : 80 bps\nStream size                              : 33.9 KiB (0%)\nLanguage                                 : English\n","torrent":{"xt":"urn:btih:14733b4610561c35e50dc00009a1a8022ea46f15","amp;dn":"Silent+Witness+Season+17+720p+HD+WebRip","amp;tr":["udp%3A%2F%2Ftracker.openbittorrent.com%3A80","udp%3A%2F%2Fopen.demonii.com%3A1337","udp%3A%2F%2Ftracker.coppersurfer.tk%3A6969","udp%3A%2F%2Fexodus.desync.com%3A6969"],"infoHash":"14733b4610561c35e50dc00009a1a8022ea46f15","infoHashBuffer":{"type":"Buffer","data":[20,115,59,70,16,86,28,53,229,13,192,0,9,161,168,2,46,164,111,21]},"announce":[],"urlList":[]}}